<?xml version="1.0" encoding="UTF-8"?>
<svg xmlns="http://www.w3.org/2000/svg" id="Layer_1" data-name="Layer 1" viewBox="0 0 24 24">
  <path d="M22.773,8.721h0c-.95-1.093-2.325-1.721-3.773-1.721h-4.87l.809-2.833c.57-3.009-3.887-4.446-5.152-1.602l-2.801,4.435h-2.485C2.019,7,0,9.019,0,11.5v6c0,2.481,2.019,4.5,4.5,4.5h13.795c2.477,0,4.605-1.849,4.951-4.302l.705-5c.202-1.435-.228-2.885-1.178-3.978ZM1,17.5v-6c0-1.93,1.57-3.5,3.5-3.5h2.512l-.011,13h-2.5c-1.93,0-3.5-1.57-3.5-3.5Zm21.961-4.941l-.705,5c-.277,1.962-1.979,3.441-3.961,3.441H8l.012-13.754,2.645-4.192c.772-1.868,3.601-.985,3.308,.895l-.979,3.414c-.043,.151-.014,.313,.081,.438,.095,.125,.242,.199,.399,.199h5.533c2.36-.054,4.344,2.228,3.961,4.559Z"/>
</svg>
